# xmcd CD database file
#
# Track frame offsets:
#	150
#	14054
#	26283
#	41642
#	55804
#	74775
#	90509
#	103001
#	119850
#	135287
#	156459
#	177235
#	187965
#	200086
#	214186
#	237394
#
# Disc length: 3337 seconds
#
# Revision: 0
# Processed by: cddbd v1.5.1PL2 Copyright (c) Steve Scherf et al.
# Submitted via: CDex 1.50
#
DISCID=ee0d0710
DTITLE=Sue Chapman - Over Time
DYEAR=2006
DGENRE=Country
TTITLE0=Lights On The Hill
TTITLE1=I'm A Believer
TTITLE2=All Of The Magic Is Gone
TTITLE3=Hey Hey Good Looking
TTITLE4=Eagle Rock
TTITLE5=Suspicious Minds
TTITLE6=The Lion Sleeps Tonight
TTITLE7=Another Brick In The Wall
TTITLE8=Live It Up
TTITLE9=Rhinestone Cowboy
TTITLE10=Some Days Are Diamonds
TTITLE11=Put Another Log On The Fire
TTITLE12=Dancing With A Man
TTITLE13=When Love Starts Talking
TTITLE14=Go Rest High On That Mountain
TTITLE15=Talking Optimist Blues
EXTD=YEAR: 2006
EXTT0=
EXTT1=
EXTT2=
EXTT3=
EXTT4=
EXTT5=
EXTT6=
EXTT7=
EXTT8=
EXTT9=
EXTT10=
EXTT11=
EXTT12=
EXTT13=
EXTT14=
EXTT15=
PLAYORDER=
